<svg width="89" height="81" viewBox="0 0 89 81" fill="none" xmlns="http://www.w3.org/2000/svg">
<path d="M73.7826 71.5422L5.31003e-05 80.2749L13.4521 8.82972L88.0541 -6.60866e-06L73.7826 71.5422Z" fill="#EB2316"/>
<path d="M18.7113 56.2799L17.0033 64.605L20.0073 64.2494C20.4443 64.1977 21.2426 64.0483 21.9725 63.4241C22.7357 62.7629 22.9996 61.9743 23.0131 61.1604C23.0207 60.6985 22.9437 60.0819 22.4715 59.6329C21.9242 59.1049 21.2151 59.1339 20.658 59.1999L19.5438 59.3318L19.9114 57.5429L23.123 57.1628L23.4194 55.7227L18.7113 56.2799ZM19.2473 60.7719L20.4817 60.6258C20.6783 60.6025 21.0384 60.5819 21.2961 60.8258C21.489 61.0225 21.5176 61.2716 21.5145 61.4585C21.5087 61.8105 21.394 62.1534 21.073 62.4438C20.7631 62.722 20.413 62.7964 20.2055 62.8209L18.7963 62.9877L19.2473 60.7719Z" fill="white"/>
<path d="M22.8542 63.9125L24.5583 63.7108L25.7629 61.4167L28.8215 61.0547L29.179 63.1639L30.7848 62.9738L29.314 55.025L27.7082 55.2151L22.8542 63.9125ZM26.5181 59.9223L28.1611 56.8299L28.6373 59.6715L26.5181 59.9223Z" fill="white"/>
<path d="M37.2909 54.0809L35.5431 54.2877L30.9403 62.9554L32.6881 62.7486L36.1489 55.8845L37.0794 62.2288L38.6525 62.0426L37.2909 54.0809Z" fill="white"/>
<path d="M45.153 53.1503L43.4052 53.3572L38.8024 62.0249L40.5502 61.818L44.011 54.954L44.9416 61.2983L46.5146 61.1121L45.153 53.1503Z" fill="white"/>
<path d="M52.0675 52.1893C50.844 52.3341 49.7359 52.7506 48.7475 53.8445C47.881 54.8143 47.3583 56.0946 47.3364 57.4144C47.316 58.6462 47.7276 59.4647 48.2749 59.9927C49.0581 60.7562 49.9933 60.8979 51.0311 60.7751C52.2545 60.6303 53.3626 60.2138 54.351 59.1198C55.2175 58.1501 55.7402 56.8698 55.7621 55.55C55.7825 54.3181 55.3709 53.4997 54.8237 52.9717C54.0405 52.2082 53.1052 52.0664 52.0675 52.1893ZM51.1746 59.3531C50.6503 59.4151 49.9635 59.4086 49.4272 58.8793C49.0946 58.5565 48.8204 57.9962 48.8337 57.1933C48.8465 56.4234 49.0901 55.5383 49.6024 54.885C50.1261 54.2083 50.8753 53.7354 51.9239 53.6113C52.4483 53.5492 53.135 53.5558 53.6714 54.085C54.004 54.4079 54.2781 54.9682 54.2648 55.7711C54.2521 56.541 54.0084 57.426 53.4961 58.0794C52.9725 58.7561 52.2233 59.229 51.1746 59.3531Z" fill="white"/>
<path d="M56.0685 59.9813L58.8213 59.6555C59.444 59.5818 60.1338 59.4014 60.7652 58.7997C61.2193 58.3728 61.7218 57.6547 61.7393 56.5988C61.7548 55.664 61.3044 55.2123 60.685 55.0881C61.5422 54.6793 62.0678 53.8816 62.0837 52.9247C62.0939 52.3088 61.8714 51.918 61.5592 51.6805C61.064 51.3001 60.3545 51.3511 59.9722 51.3964L57.7765 51.6562L56.0685 59.9813ZM57.8615 58.3641L58.3124 56.1592L59.2955 56.0429C59.5358 56.0144 59.8302 56.0125 60.0445 56.2396C60.216 56.4169 60.2447 56.655 60.2416 56.842C60.2334 57.3369 59.9991 57.661 59.8218 57.8357C59.6113 58.0362 59.3144 58.1921 58.9757 58.2322L57.8615 58.3641ZM58.6088 54.7191L58.9766 52.9192L59.6976 52.8339C59.8833 52.8119 60.178 52.788 60.3716 52.9517C60.4899 53.0475 60.5849 53.2338 60.5806 53.4978C60.5753 53.8167 60.4398 54.0962 60.2404 54.2845C60.0964 54.4223 59.8541 54.5717 59.4499 54.6195L58.6088 54.7191Z" fill="white"/>
<path d="M22.3224 41.052L25.3819 41.6002C26.0856 40.4686 27.1929 39.7858 28.5929 39.6201C29.3342 39.5324 30.2918 39.6122 30.9909 40.4122C31.5019 40.9862 31.7046 41.9828 31.6886 42.9503C31.6675 44.2217 31.1038 45.1712 30.4074 45.8605C29.4602 46.8002 28.4152 47.0342 27.5916 47.1317C26.823 47.2226 26.139 47.1657 25.4911 46.5803C25.0327 46.138 24.7417 45.5104 24.7536 44.7917C24.7559 44.6535 24.7577 44.543 24.7875 44.4015L21.1363 44.8337C21.1043 45.1133 21.0992 45.4174 21.0947 45.6938C21.0717 47.0758 21.6509 48.4969 22.7037 49.4481C24.0809 50.6644 25.8593 50.8125 27.479 50.6208C30.2242 50.2959 32.1903 49.0425 33.5346 47.2834C34.3467 46.2218 35.3076 44.4529 35.3503 41.8824C35.3906 39.4501 34.6192 38.0517 33.8643 37.3135C33.1368 36.572 31.9139 35.9719 29.9648 36.2026C28.4549 36.3813 27.5681 36.9828 27.2634 37.1844L28.8668 33.0223L35.5926 32.2262L36.5563 28.6363L26.591 29.8158L22.3224 41.052Z" fill="white"/>
<path d="M37.6839 39.2338L40.7434 39.782C41.4471 38.6505 42.5544 37.9677 43.9545 37.802C44.6957 37.7142 45.6533 37.794 46.3524 38.594C46.8634 39.168 47.0661 40.1647 47.0501 41.1321C47.029 42.4035 46.4653 43.353 45.7689 44.0423C44.8217 44.982 43.7767 45.216 42.9531 45.3135C42.1845 45.4045 41.5005 45.3475 40.8526 44.7621C40.3942 44.3198 40.1032 43.6922 40.1151 42.9736C40.1174 42.8354 40.1192 42.7248 40.149 42.5834L36.4978 43.0155C36.4658 43.2952 36.4607 43.5992 36.4562 43.8756C36.4332 45.2576 37.0125 46.6787 38.0652 47.6299C39.4424 48.8462 41.2208 48.9944 42.8405 48.8027C45.5857 48.4777 47.5518 47.2244 48.8961 45.4653C49.7082 44.4036 50.6691 42.6348 50.7118 40.0642C50.7521 37.6319 49.9807 36.2336 49.2258 35.4953C48.4983 34.7539 47.2754 34.1538 45.3263 34.3845C43.8164 34.5632 42.9296 35.1647 42.6249 35.3663L44.2283 31.2041L50.9541 30.4081L51.9178 26.8182L41.9526 27.9977L37.6839 39.2338Z" fill="white"/>
<path d="M53.0454 37.4156L56.1049 37.9639C56.8086 36.8323 57.9159 36.1495 59.316 35.9838C60.0572 35.8961 61.0148 35.9759 61.7139 36.7759C62.2249 37.3498 62.4276 38.3465 62.4116 39.3139C62.3905 40.5854 61.8268 41.5349 61.1304 42.2242C60.1832 43.1639 59.1382 43.3979 58.3147 43.4954C57.546 43.5863 56.862 43.5294 56.2141 42.944C55.7557 42.5017 55.4647 41.8741 55.4766 41.1554C55.4789 41.0172 55.4807 40.9067 55.5105 40.7652L51.8593 41.1974C51.8273 41.477 51.8222 41.7811 51.8177 42.0575C51.7947 43.4395 52.374 44.8605 53.4267 45.8118C54.8039 47.0281 56.5823 47.1762 58.202 46.9845C60.9472 46.6596 62.9133 45.4062 64.2576 43.6471C65.0698 42.5855 66.0306 40.8166 66.0733 38.2461C66.1136 35.8137 65.3422 34.4154 64.5873 33.6772C63.8599 32.9357 62.6369 32.3356 60.6878 32.5663C59.1779 32.745 58.2912 33.3465 57.9864 33.5481L59.5898 29.386L66.3156 28.5899L67.2793 25L57.3141 26.1795L53.0454 37.4156Z" fill="white"/>
<path d="M81.1211 11.7329L81.9999 9.00003C81.9999 9.00003 77.2987 9.92218 73.6494 10.2111C70 10.5 64.0935 11.2081 60.1043 13.4354C57.0653 15.1334 55.044 17.6655 53.998 21.098L53.189 23.7525L55.9355 23.3557C56.5997 23.2597 57.2833 23.1819 57.9765 23.1115C58.6456 23.0436 59.3294 22.9836 60.0589 22.9195L60.5892 22.8731C61.4216 22.8007 62.2955 22.7248 63.1776 22.6353C67.5434 22.1923 71.4415 21.4583 74.5348 19.8459C77.7284 18.1812 80.0036 15.6115 81.1211 11.7329Z" fill="white"/>
<path d="M62.9997 20.8822C71.6416 20.0054 77.4697 18.0413 79.4277 11.2451C77.7585 11.5505 75.9247 11.7438 74.0092 11.9453C69.6122 12.4043 64.6294 12.9271 60.9637 14.9738C58.334 16.443 56.6009 18.6014 55.6834 21.6117C56.3819 21.5108 57.0927 21.4301 57.7985 21.3584C58.4816 21.2891 59.1775 21.228 59.9047 21.1642C60.0236 21.1538 60.1434 21.1432 60.264 21.1326C60.3196 21.1278 60.3752 21.123 60.431 21.1181C61.2671 21.0455 62.1302 20.9705 62.9997 20.8822Z" fill="#008F32"/>
</svg>
