<svg width="446" height="476" viewBox="0 0 446 476" fill="none" xmlns="http://www.w3.org/2000/svg">
<path d="M123.2 351.302L105.974 227.779C104.94 220.367 110.111 213.521 117.523 212.487L348.29 180.305C355.743 179.266 362.615 184.497 363.596 191.958L379.937 316.156C380.91 323.548 375.729 330.336 368.343 331.349L138.46 362.855C131.058 363.87 124.232 358.702 123.2 351.302Z" fill="#ED1B31"/>
<path d="M163.617 274.847C163.578 273.839 163.857 272.961 164.66 272C165.717 270.761 167.019 270.318 168.298 270.117C169.113 269.989 170.344 269.855 171.537 270.622C172.201 271.054 172.987 271.884 173.216 273.338C173.426 274.676 173.113 276.097 172.435 277.097C171.17 278.906 168.977 279.369 167.814 279.552L166.127 279.817L165.882 287.367L167.22 287.156C169.024 286.873 170.953 286.63 172.715 287.605C173.63 288.116 175.071 289.321 175.501 292.055C175.866 294.382 175.201 296.215 174.336 297.543C172.755 299.997 170.425 300.721 168.621 301.005C167.225 301.224 165.51 301.314 163.904 300.196C162.894 299.46 161.879 298.308 161.632 296.738C161.568 296.331 161.504 295.923 161.498 295.507L153.761 296.723C153.822 297.488 153.94 298.244 154.059 299.001C154.608 302.491 156.464 304.822 158.435 306.361C162.039 309.192 165.933 308.938 168.726 308.499C171.983 307.987 177.088 306.708 180.569 301.929C183.609 297.755 183.649 293.457 183.147 290.257C182.434 285.72 180 281.989 175.19 281.731C179.432 279.515 181.428 275.148 180.724 270.668C180.139 266.945 178.047 265.009 176.459 264.006C173.417 262.1 170.055 262.33 167.845 262.677C163.54 263.354 160.492 265.204 158.553 267.655C157.161 269.423 155.702 272.275 155.88 276.062L163.617 274.847ZM200.965 287.577C200.896 288.661 201.003 289.717 201.167 290.764C202.392 298.56 207.401 302.363 214.973 301.233C227.78 299.28 229.486 290.785 229.744 284.843L230.369 268.71C230.437 267.626 230.331 266.57 230.166 265.523C228.941 257.727 223.933 253.924 216.361 255.054C203.553 257.007 201.848 265.501 201.589 271.444L200.965 287.577ZM209.326 270.228C209.448 267.586 210.182 263.536 215.884 262.64C219.665 262.046 221.99 263.946 222.511 267.262C222.648 268.135 222.669 269.026 222.632 269.926L222.007 286.059C221.895 288.759 221.084 292.702 215.566 293.628C209.7 294.61 208.95 289.839 208.822 289.025C208.685 288.152 208.664 287.261 208.702 286.361L209.326 270.228ZM233.518 282.462C233.449 283.546 233.556 284.602 233.72 285.649C234.945 293.445 239.954 297.248 247.526 296.118C260.333 294.165 262.039 285.671 262.297 279.729L262.922 263.595C262.99 262.511 262.884 261.455 262.719 260.408C261.494 252.612 256.485 248.809 248.914 249.94C236.106 251.892 234.401 260.387 234.142 266.329L233.518 282.462ZM241.879 265.113C242.001 262.471 242.735 258.421 248.436 257.526C252.218 256.931 254.543 258.831 255.064 262.147C255.201 263.02 255.222 263.911 255.185 264.811L254.56 280.944C254.448 283.644 253.637 287.587 248.119 288.513C242.253 289.495 241.503 284.725 241.375 283.91C241.238 283.037 241.217 282.147 241.255 281.246L241.879 265.113ZM266.07 277.347C266.002 278.431 266.109 279.487 266.273 280.534C267.498 288.33 272.507 292.133 280.079 291.003C292.886 289.05 294.592 280.556 294.85 274.614L295.475 258.48C295.543 257.396 295.436 256.34 295.272 255.293C294.047 247.498 289.038 243.695 281.466 244.825C268.659 246.777 266.953 255.272 266.695 261.214L266.07 277.347ZM274.432 259.998C274.553 257.356 275.288 253.306 280.989 252.411C284.771 251.817 287.096 253.716 287.617 257.032C287.754 257.905 287.775 258.796 287.737 259.696L287.113 275.829C287.001 278.53 286.19 282.472 280.672 283.399C274.806 284.38 274.056 279.61 273.928 278.795C273.791 277.923 273.77 277.032 273.808 276.132L274.432 259.998ZM314.817 284.472L315.121 278.82L311.166 279.442L311.461 273.732L315.417 273.111L315.671 268.66L311.657 269.29L312.085 261.772L316.099 261.141L317.133 241.545L329.292 239.635C331.929 239.221 334.177 239.364 336.036 240.066C337.895 240.767 339.356 241.849 340.421 243.311C341.479 244.734 342.154 246.377 342.447 248.238C342.721 249.984 342.733 251.83 342.482 253.777C342.226 255.685 341.563 257.537 340.494 259.335C339.458 261.087 337.875 262.647 335.745 264.015C333.648 265.338 330.874 266.271 327.422 266.813L324.106 267.334L323.852 271.786L331.705 270.552L331.41 276.261L323.557 277.495L323.252 283.146L314.817 284.472ZM326.861 259.45C329.15 259.091 330.994 258.185 332.395 256.733C333.797 255.28 334.296 253.275 333.894 250.715C333.455 247.922 331.646 246.776 328.466 247.276L325.15 247.797L324.534 259.816L326.861 259.45Z" fill="white"/>
<g style="mix-blend-mode:multiply" filter="url(#filter0_f)">
<path d="M320.119 263.174L111.427 229.91L136.576 212.488L309.72 222.148L320.119 263.174Z" fill="url(#paint0_linear)"/>
</g>
<path d="M42.3863 212.163L49.1469 87.6171C49.5523 80.1486 55.9322 74.4211 63.401 74.8204L295.791 87.2466C303.309 87.6486 309.058 94.1022 308.592 101.617L300.834 226.657C300.373 234.093 293.994 239.762 286.555 239.347L55.1614 226.427C47.6975 226.01 41.9811 219.627 42.3863 212.163Z" fill="#FFE500"/>
<path d="M88.6461 174.878L96.6068 175.348L107.843 131.565L98.6853 131.024L79.71 148.222L84.6837 153.501L97.0698 142.1L88.6461 174.878ZM123.04 162.014C122.737 163.077 122.613 164.151 122.55 165.229C122.076 173.249 126.233 178.12 134.01 178.639C147.175 179.477 150.716 171.398 152.263 165.543L156.387 149.629C156.69 148.566 156.813 147.492 156.877 146.415C157.351 138.394 153.194 133.524 145.416 133.004C132.252 132.166 128.711 140.246 127.164 146.101L123.04 162.014ZM135.124 146.571C135.819 143.969 137.429 140.1 143.295 140.447C147.185 140.677 149.086 143.071 148.884 146.483C148.831 147.381 148.658 148.272 148.426 149.159L144.302 165.072C143.604 167.734 141.941 171.48 136.252 171.204C130.203 170.906 130.493 165.998 130.542 165.16C130.595 164.262 130.768 163.372 131.001 162.484L135.124 146.571ZM156.533 163.993C156.23 165.056 156.106 166.13 156.043 167.208C155.569 175.228 159.726 180.099 167.503 180.618C180.668 181.456 184.209 173.377 185.756 167.522L189.879 151.608C190.183 150.545 190.306 149.471 190.37 148.394C190.844 140.373 186.687 135.503 178.909 134.983C165.745 134.145 162.204 142.225 160.657 148.08L156.533 163.993ZM168.617 148.55C169.312 145.948 170.922 142.079 176.788 142.426C180.678 142.656 182.579 145.05 182.377 148.462C182.324 149.36 182.151 150.251 181.919 151.138L177.795 167.051C177.097 169.713 175.434 173.459 169.745 173.183C163.696 172.885 163.986 167.977 164.035 167.139C164.088 166.242 164.261 165.351 164.494 164.464L168.617 148.55ZM190.026 165.972C189.723 167.036 189.599 168.109 189.536 169.187C189.062 177.207 193.219 182.078 200.996 182.598C214.161 183.435 217.701 175.356 219.249 169.501L223.372 153.588C223.676 152.524 223.799 151.45 223.863 150.373C224.337 142.352 220.18 137.482 212.402 136.962C199.238 136.124 195.697 144.204 194.15 150.059L190.026 165.972ZM202.11 150.529C202.805 147.927 204.415 144.058 210.281 144.405C214.171 144.635 216.072 147.03 215.87 150.441C215.817 151.339 215.644 152.23 215.412 153.117L211.288 169.031C210.59 171.692 208.927 175.438 203.238 175.162C197.189 174.865 197.479 169.956 197.528 169.118C197.581 168.221 197.754 167.33 197.987 166.443L202.11 150.529ZM236.971 183.642L238.501 178.087L234.43 177.846L235.963 172.231L240.034 172.471L241.253 168.098L237.123 167.854L239.181 160.468L243.311 160.712L248.594 141.443L261.104 142.183C263.817 142.343 266.022 142.974 267.719 144.075C269.416 145.176 270.635 146.57 271.376 148.255C272.12 149.901 272.435 151.682 272.322 153.597C272.216 155.393 271.827 157.232 271.155 159.114C270.486 160.956 269.424 162.655 267.971 164.211C266.56 165.73 264.646 166.938 262.231 167.836C259.857 168.697 256.895 169.023 253.344 168.813L249.932 168.611L248.713 172.984L256.793 173.461L255.26 179.077L247.179 178.599L245.65 184.155L236.971 183.642ZM254.384 161.366C256.739 161.505 258.77 161.005 260.479 159.865C262.189 158.724 263.121 156.837 263.277 154.204C263.446 151.331 261.895 149.797 258.623 149.604L255.211 149.402L251.99 161.225L254.384 161.366Z" fill="#009640"/>
<defs>
<filter id="filter0_f" x="106.007" y="207.068" width="219.532" height="61.5263" filterUnits="userSpaceOnUse" color-interpolation-filters="sRGB">
<feFlood flood-opacity="0" result="BackgroundImageFix"/>
<feBlend mode="normal" in="SourceGraphic" in2="BackgroundImageFix" result="shape"/>
<feGaussianBlur stdDeviation="2.71009" result="effect1_foregroundBlur"/>
</filter>
<linearGradient id="paint0_linear" x1="131.303" y1="222.244" x2="260.215" y2="267.335" gradientUnits="userSpaceOnUse">
<stop stop-color="#C4C4C4"/>
<stop offset="1" stop-color="#C4C4C4" stop-opacity="0"/>
</linearGradient>
</defs>
</svg>
